HIERARCHY
ROOT hip
{
  OFFSET 0.0 0.0 0.0
  CHANNELS 6 Xposition Yposition Zposition Zrotation Yrotation Xrotation
  JOINT abdomen
  {
    OFFSET 0.0 20.6881 -0.73152
    CHANNELS 3 Zrotation Xrotation Yrotation
    JOINT chest
    {
      OFFSET 0.0 11.7043 -0.48768
      CHANNELS 3 Zrotation Xrotation Yrotation
      JOINT neck
      {
        OFFSET 0.0 22.1894 -2.19456
        CHANNELS 3 Zrotation Xrotation Yrotation
        JOINT head
        {
          OFFSET -0.24384 7.07133 1.2192
          CHANNELS 3 Zrotation Xrotation Yrotation
          JOINT leftEye
          {
            OFFSET 4.14528 8.04674 8.04672
            CHANNELS 3 Zrotation Xrotation Yrotation
            End Site
            {
              OFFSET 1.0 0.0 0.0
            }
          }
          JOINT rightEye
          {
            OFFSET -3.6576 8.04674 8.04672
            CHANNELS 3 Zrotation Xrotation Yrotation
            End Site
            {
              OFFSET 1.0 0.0 0.0
            }
          }
        }
      }
      JOINT rCollar
      {
        OFFSET -2.68224 19.2634 -4.8768
        CHANNELS 3 Zrotation Xrotation Yrotation
        JOINT rShldr
        {
          OFFSET -8.77824 -1.95073 1.46304
          CHANNELS 3 Zrotation Xrotation Yrotation
          JOINT rForeArm
          {
            OFFSET -28.1742 -1.7115 0.48768
            CHANNELS 3 Zrotation Xrotation Yrotation
            JOINT rHand
            {
              OFFSET -22.5879 0.773209 7.07136
              CHANNELS 3 Zrotation Xrotation Yrotation
              JOINT rThumb1
              {
                OFFSET -1.2192 -0.487915 3.41376
                CHANNELS 3 Zrotation Xrotation Yrotation
                JOINT rThumb2
                {
                  OFFSET -3.37035 -0.52449 3.41376
                  CHANNELS 3 Zrotation Xrotation Yrotation
                  End Site
                  {
                    OFFSET -1.78271 -1.18214 1.43049
                  }
                }
              }
              JOINT rIndex1
              {
                OFFSET -7.75947 0.938293 5.60832
                CHANNELS 3 Zrotation Xrotation Yrotation
                JOINT rIndex2
                {
                  OFFSET -2.54057 -0.884171 1.56538
                  CHANNELS 3 Zrotation Xrotation Yrotation
                  End Site
                  {
                    OFFSET -1.62519 -0.234802 1.16502
                  }
                }
              }
              JOINT rMid1
              {
                OFFSET -8.24714 1.18213 3.41376
                CHANNELS 3 Zrotation Xrotation Yrotation
                JOINT rMid2
                {
                  OFFSET -3.10165 -0.590103 1.0647
                  CHANNELS 3 Zrotation Xrotation Yrotation
                  End Site
                  {
                    OFFSET -2.48547 -0.328903 0.83742
                  }
                }
              }
              JOINT rRing1
              {
                OFFSET -8.82822 0.546677 1.51678
                CHANNELS 3 Zrotation Xrotation Yrotation
                JOINT rRing2
                {
                  OFFSET -2.60934 -0.819778 -0.0198488
                  CHANNELS 3 Zrotation Xrotation Yrotation
                  End Site
                  {
                    OFFSET -2.33842 -0.294052 0.168128
                  }
                }
              }
              JOINT rPinky1
              {
                OFFSET -8.27202 -0.0477905 -0.4584
                CHANNELS 3 Zrotation Xrotation Yrotation
                JOINT rPinky2
                {
                  OFFSET -1.82734 -0.647385 -0.700984
                  CHANNELS 3 Zrotation Xrotation Yrotation
                  End Site
                  {
                    OFFSET -1.69225 -0.51767 -0.607171
                  }
                }
              }
            }
          }
        }
      }
      JOINT lCollar
      {
        OFFSET 2.68224 19.2634 -4.8768
        CHANNELS 3 Zrotation Xrotation Yrotation
        JOINT lShldr
        {
          OFFSET 8.77824 -1.95073 1.46304
          CHANNELS 3 Zrotation Xrotation Yrotation
          JOINT lForeArm
          {
            OFFSET 28.1742 -1.7115 0.48768
            CHANNELS 3 Zrotation Xrotation Yrotation
            JOINT lHand
            {
              OFFSET 22.5879 0.773209 7.07136
              CHANNELS 3 Zrotation Xrotation Yrotation
              JOINT lThumb1
              {
                OFFSET 1.2192 -0.487915 3.41376
                CHANNELS 3 Zrotation Xrotation Yrotation
                JOINT lThumb2
                {
                  OFFSET 3.37035 -0.52449 3.41376
                  CHANNELS 3 Zrotation Xrotation Yrotation
                  End Site
                  {
                    OFFSET 1.78271 -1.18214 1.43049
                  }
                }
              }
              JOINT lIndex1
              {
                OFFSET 7.75947 0.938293 5.60832
                CHANNELS 3 Zrotation Xrotation Yrotation
                JOINT lIndex2
                {
                  OFFSET 2.54057 -0.884171 1.56538
                  CHANNELS 3 Zrotation Xrotation Yrotation
                  End Site
                  {
                    OFFSET 1.62519 -0.234802 1.16502
                  }
                }
              }
              JOINT lMid1
              {
                OFFSET 8.24714 1.18213 3.41376
                CHANNELS 3 Zrotation Xrotation Yrotation
                JOINT lMid2
                {
                  OFFSET 3.10165 -0.590103 1.0647
                  CHANNELS 3 Zrotation Xrotation Yrotation
                  End Site
                  {
                    OFFSET 2.48547 -0.328903 0.83742
                  }
                }
              }
              JOINT lRing1
              {
                OFFSET 8.82822 0.546677 1.51678
                CHANNELS 3 Zrotation Xrotation Yrotation
                JOINT lRing2
                {
                  OFFSET 2.60934 -0.819778 -0.0198488
                  CHANNELS 3 Zrotation Xrotation Yrotation
                  End Site
                  {
                    OFFSET 2.33842 -0.294052 0.168128
                  }
                }
              }
              JOINT lPinky1
              {
                OFFSET 8.27202 -0.0477905 -0.4584
                CHANNELS 3 Zrotation Xrotation Yrotation
                JOINT lPinky2
                {
                  OFFSET 1.82734 -0.647385 -0.700984
                  CHANNELS 3 Zrotation Xrotation Yrotation
                  End Site
                  {
                    OFFSET 1.69225 -0.51767 -0.607171
                  }
                }
              }
            }
          }
        }
      }
    }
  }
  JOINT rButtock
  {
    OFFSET -8.77824 4.35084 1.2192
    CHANNELS 3 Zrotation Xrotation Yrotation
    JOINT rThigh
    {
      OFFSET 0.0 -1.70687 -2.19456
      CHANNELS 3 Zrotation Xrotation Yrotation
      JOINT rShin
      {
        OFFSET 0.0 -36.8199 0.73152
        CHANNELS 3 Zrotation Xrotation Yrotation
        JOINT rFoot
        {
          OFFSET 0.73152 -45.1104 -5.12064
          CHANNELS 3 Zrotation Xrotation Yrotation
          End Site
          {
            OFFSET -1.1221 -3.69964 12.103
          }
        }
      }
    }
  }
  JOINT lButtock
  {
    OFFSET 8.77824 4.35084 1.2192
    CHANNELS 3 Zrotation Xrotation Yrotation
    JOINT lThigh
    {
      OFFSET 0.0 -1.70687 -2.19456
      CHANNELS 3 Zrotation Xrotation Yrotation
      JOINT lShin
      {
        OFFSET 0.0 -36.8199 0.73152
        CHANNELS 3 Zrotation Xrotation Yrotation
        JOINT lFoot
        {
          OFFSET -0.73152 -45.1104 -5.12064
          CHANNELS 3 Zrotation Xrotation Yrotation
          End Site
          {
            OFFSET 1.1221 -3.69964 12.103
          }
        }
      }
    }
  }
}
MOTION
Frames: 4
Frame Time: 0.00833333
10.549 91.3143 84.8678 -5.4206 0.4324 2.0828 -4.18093 3.25538 1.84878 1.35573 -3.02605 0.280607 3.11981 -4.51624 -1.35721 4.47811 -18.8584 -3.1194 -0.0 0.0 0.0 -0.0 0.0 0.0 1.08355e-13 -4.93048e-14 1.68967e-15 74.7561 49.9031 -4.05211 -25.3682 -21.9097 54.2864 -0.297127 -15.3284 -2.20772 -6.95972e-10 1.42773e-09 3.3663e-11 -1.20175e-09 2.48104e-09 5.01637e-11 -6.95967e-10 1.42773e-09 3.36566e-11 7.73091 5.47488 0.417314 -6.95972e-10 1.42773e-09 3.3663e-11 2.90554 0.965183 0.102902 -6.95967e-10 1.42773e-09 3.36662e-11 10.2786 0.731801 0.0259123 -6.95971e-10 1.42773e-09 3.36757e-11 2.22167 -0.733487 -0.20892 1.08426e-13 -4.9292e-14 1.49089e-15 -76.6999 35.2508 6.49829 21.0043 -14.3298 -41.1774 0.767593 -24.0699 3.59931 -4.71099e-10 -7.38979e-10 1.71731e-10 -8.15548e-10 -1.27922e-09 2.87273e-10 -4.71112e-10 -7.38985e-10 1.7175e-10 -7.73091 5.47488 -0.417314 -4.71109e-10 -7.38988e-10 1.71731e-10 -2.90554 0.965183 -0.102902 -4.71113e-10 -7.38988e-10 1.71727e-10 -10.2786 0.731801 -0.0259123 -4.71097e-10 -7.38982e-10 1.71721e-10 -2.22167 -0.733487 0.20892 -2.03217e-16 0.0 -3.88251e-19 -4.97365 -18.6901 -12.8297 -1.48992 63.1495 1.16458 0.767983 12.7539 -29.4279 2.03217e-16 0.0 3.88251e-19 5.24029 -18.8256 1.86804 0.284769 37.5771 -0.203733 0.44915 4.50258 10.3754
10.7619 91.9899 86.1006 -4.9998 0.3319 1.8969 -4.41484 3.4084 0.851186 2.02899 -2.88529 0.0190394 3.68125 -5.09356 -0.998806 3.89366 -18.373 -2.7583 -0.0 0.0 0.0 -0.0 0.0 0.0 9.16904e-14 -4.55434e-14 8.8001e-15 74.3477 49.3646 -4.36235 -25.7158 -22.7256 55.6017 -0.344865 -16.457 -2.37942 -5.29675e-10 1.42729e-09 -1.81592e-10 -9.11334e-10 2.46769e-09 -3.1995e-10 -5.29671e-10 1.42729e-09 -1.81602e-10 7.73091 5.47488 0.417314 -5.29675e-10 1.42729e-09 -1.81594e-10 2.90554 0.965183 0.102902 -5.2967e-10 1.42729e-09 -1.8159e-10 10.2786 0.731801 0.0259123 -5.29676e-10 1.42729e-09 -1.8158e-10 2.22167 -0.733487 -0.20892 9.17181e-14 -4.55308e-14 8.55279e-15 -75.581 36.7966 5.82423 21.2163 -14.6241 -41.7171 0.706243 -23.1804 3.44949 -3.26185e-10 -5.16712e-10 1.91288e-10 -5.66176e-10 -8.95699e-10 3.2374e-10 -3.26198e-10 -5.16717e-10 1.91307e-10 -7.73091 5.47488 -0.417314 -3.26193e-10 -5.1672e-10 1.91288e-10 -2.90554 0.965183 -0.102902 -3.26198e-10 -5.1672e-10 1.91284e-10 -10.2786 0.731801 -0.0259123 -3.26182e-10 -5.16715e-10 1.91277e-10 -2.22167 -0.733487 0.20892 -2.03217e-16 0.0 -3.88251e-19 -5.71281 -20.1556 -13.6888 -1.4975 63.3827 1.2249 0.557123 12.4071 -28.415 2.03217e-16 0.0 3.88251e-19 4.84015 -17.7759 1.69139 0.262725 36.763 -0.2226 0.0882074 6.60423 9.85927
10.9706 92.6134 87.3276 -4.6007 0.3217 1.6961 -4.68385 3.64643 -0.252029 2.77551 -2.73553 -0.269712 4.33297 -5.7731 -0.581317 3.20861 -17.8879 -2.33911 -0.0 0.0 0.0 -0.0 0.0 0.0 4.63191e-14 -3.80975e-14 8.85213e-15 73.8146 48.8409 -4.5639 -26.0469 -23.558 56.9518 -0.391647 -17.5111 -2.54138 -2.57214e-10 1.2669e-09 -4.60628e-10 -4.36741e-10 2.17164e-09 -7.98594e-10 -2.5721e-10 1.2669e-09 -4.60642e-10 7.73091 5.47488 0.417314 -2.57213e-10 1.2669e-09 -4.60632e-10 2.90554 0.965183 0.102902 -2.57208e-10 1.2669e-09 -4.60628e-10 10.2786 0.731801 0.0259123 -2.57218e-10 1.2669e-09 -4.60615e-10 2.22167 -0.733487 -0.20892 4.6271e-14 -3.80869e-14 8.53842e-15 -74.3529 38.1447 5.09153 21.4525 -14.956 -42.3375 0.64106 -22.1721 3.2824 -3.64005e-11 -6.30986e-11 1.60978e-10 -6.59721e-11 -1.11452e-10 2.7657e-10 -3.64127e-11 -6.31025e-11 1.60999e-10 -7.73091 5.47488 -0.417314 -3.6405e-11 -6.31042e-11 1.6098e-10 -2.90554 0.965183 -0.102902 -3.64103e-11 -6.3105e-11 1.60976e-10 -10.2786 0.731801 -0.0259123 -3.63967e-11 -6.31012e-11 1.60967e-10 -2.22167 -0.733487 0.20892 -2.03217e-16 0.0 -3.88251e-19 -6.43246 -21.557 -14.5981 -1.48913 63.4766 1.27946 0.315066 11.9447 -27.2325 2.03217e-16 0.0 3.88251e-19 4.47067 -16.8924 1.5205 0.245682 36.0927 -0.24821 -0.229972 8.78614 9.23454
11.1812 93.1805 88.549 -4.2201 0.3972 1.483 -4.91218 3.91079 -1.37358 3.51353 -2.60241 -0.562354 4.99142 -6.38663 -0.166273 2.49389 -17.4779 -1.92583 -0.0 0.0 0.0 -0.0 0.0 0.0 -5.09884e-15 -3.01915e-14 6.3417e-15 73.3019 48.2672 -4.81172 -26.3597 -24.3991 58.3165 -0.437768 -18.4845 -2.69267 1.85266e-11 1.04197e-09 -7.24723e-10 4.32817e-11 1.76375e-09 -1.25128e-09 1.85305e-11 1.04197e-09 -7.24741e-10 7.73091 5.47488 0.417314 1.85284e-11 1.04197e-09 -7.24729e-10 2.90554 0.965183 0.102902 1.85333e-11 1.04197e-09 -7.24725e-10 10.2786 0.731801 0.0259123 1.85192e-11 1.04197e-09 -7.24712e-10 2.22167 -0.733487 -0.20892 -5.2201e-15 -3.01837e-14 5.96936e-15 -73.0218 39.3921 4.34605 21.7106 -15.3272 -43.0229 0.582705 -21.1916 3.12284 2.62575e-10 4.13416e-10 1.16526e-10 4.50348e-10 7.12538e-10 2.05164e-10 2.62563e-10 4.13413e-10 1.16546e-10 -7.73091 5.47488 -0.417314 2.62573e-10 4.13412e-10 1.16529e-10 -2.90554 0.965183 -0.102902 2.62568e-10 4.13411e-10 1.16525e-10 -10.2786 0.731801 -0.0259123 2.62579e-10 4.13414e-10 1.16515e-10 -2.22167 -0.733487 0.20892 -2.03217e-16 0.0 -3.88251e-19 -7.1237 -22.8862 -15.5302 -1.46715 63.4213 1.32343 0.0574727 11.3807 -26.0047 2.03217e-16 0.0 3.88251e-19 4.13819 -16.1175 1.35898 0.232324 35.5586 -0.27782 -0.461309 10.7387 8.62837
